<?xml version="1.0" standalone="no"?>
<!DOCTYPE svg PUBLIC "-//W3C//DTD SVG 20010904//EN"
 "http://www.w3.org/TR/2001/REC-SVG-20010904/DTD/svg10.dtd">
<svg version="1.0" xmlns="http://www.w3.org/2000/svg"
 width="200.000000pt" height="200.000000pt" viewBox="0 0 200.000000 200.000000"
 preserveAspectRatio="xMidYMid meet">
<metadata>
Created by potrace 1.14, written by Peter Selinger 2001-2017
</metadata>
<g transform="translate(0.000000,200.000000) scale(0.100000,-0.100000)"
fill="#000000" stroke="none">
<path d="M945 1765 c-16 -15 -25 -36 -25 -55 0 -19 9 -40 25 -55 15 -16 36
-25 55 -25 19 0 40 9 55 25 16 15 25 36 25 55 0 19 -9 40 -25 55 -15 16 -36
25 -55 25 -19 0 -40 -9 -55 -25z"/>
<path d="M764 1593 c21 -54 232 -513 236 -513 6 0 242 521 238 525 -2 1 -56
-13 -121 -31 l-117 -33 -108 30 c-59 16 -113 32 -121 34 -9 4 -11 0 -7 -12z"/>
<path d="M590 1580 c-41 -41 -10 -110 48 -110 56 0 85 68 47 110 -23 26 -69
26 -95 0z"/>
<path d="M1315 1580 c-38 -42 -9 -110 47 -110 35 0 68 32 68 65 0 56 -77 86
-115 45z"/>
<path d="M490 1407 c31 -29 422 -319 425 -315 2 2 -34 75 -80 163 l-83 160
-139 3 c-118 2 -136 1 -123 -11z"/>
<path d="M1192 1308 c-85 -161 -113 -218 -107 -218 6 0 401 294 425 316 12 12
-6 14 -122 14 l-136 0 -60 -112z"/>
<path d="M517 1104 c-72 -107 -93 -144 -80 -144 10 0 58 5 107 10 155 18 317
-19 396 -89 27 -25 24 -24 -68 14 -125 52 -297 55 -405 7 -38 -17 -37 -17 130
-18 156 -1 245 -12 373 -47 8 -2 11 -2 7 1 -4 2 -2 11 4 19 10 11 10 13 -1 11
-7 -2 -15 3 -18 11 -3 9 0 11 8 6 7 -4 4 7 -6 26 -59 115 -152 181 -286 204
l-38 6 21 40 c11 23 19 42 17 43 -2 1 -11 7 -20 15 -15 11 -21 4 -57 -68 -23
-44 -41 -82 -41 -83 0 -2 27 -1 59 0 107 6 201 -32 297 -120 57 -52 57 -70 1
-24 -89 73 -231 115 -348 102 -33 -3 -59 -3 -59 1 0 3 25 53 55 111 31 57 54
106 53 107 -2 1 -47 -62 -101 -141z"/>
<path d="M1380 1247 c0 -3 25 -53 55 -110 30 -57 55 -107 55 -110 0 -4 -26 -4
-59 -1 -117 13 -259 -29 -348 -102 -56 -46 -56 -28 1 24 96 88 190 126 297
120 32 -1 59 -2 59 0 0 1 -18 39 -41 83 -36 72 -42 79 -57 68 -9 -8 -18 -14
-20 -15 -2 -1 6 -20 17 -43 l21 -40 -38 -6 c-134 -23 -227 -89 -286 -204 -10
-19 -13 -30 -6 -26 8 5 11 3 8 -6 -3 -8 -11 -13 -18 -11 -11 2 -11 0 -1 -11 6
-8 8 -17 4 -19 -4 -3 -1 -3 7 -1 127 35 217 46 373 47 167 1 168 1 130 18
-108 48 -280 45 -405 -7 -92 -38 -95 -39 -68 -14 83 73 236 107 408 88 57 -6
105 -9 107 -7 1 1 -42 68 -96 147 -55 79 -99 142 -99 138z"/>
<path d="M423 693 c-7 -3 -13 -14 -13 -25 0 -14 6 -19 22 -16 13 2 24 10 26
19 3 18 -15 29 -35 22z"/>
<path d="M1600 657 l0 -43 -39 4 c-48 5 -71 -22 -71 -83 0 -69 39 -102 90 -75
13 7 21 7 25 0 3 -5 13 -10 21 -10 11 0 14 23 14 125 0 118 -1 125 -20 125
-17 0 -20 -7 -20 -43z m-5 -116 c0 -30 -5 -47 -17 -54 -25 -16 -48 9 -48 53 0
44 6 52 40 48 22 -3 25 -7 25 -47z"/>
<path d="M170 570 c0 -113 1 -120 20 -120 17 0 19 8 22 82 l3 81 63 -81 c35
-45 70 -82 78 -82 11 0 14 22 14 120 0 99 -3 120 -15 120 -11 0 -15 -18 -17
-82 l-3 -83 -65 83 c-92 116 -100 113 -100 -38z"/>
<path d="M1320 570 l0 -120 75 0 c68 0 75 2 75 20 0 18 -7 20 -56 20 l-55 0 3
33 c3 29 6 32 41 35 54 5 51 32 -4 32 -39 0 -40 1 -37 33 3 31 4 32 56 35 37
2 52 7 52 18 0 11 -16 14 -75 14 l-75 0 0 -120z"/>
<path d="M410 535 c0 -78 2 -85 20 -85 18 0 20 7 20 85 0 78 -2 85 -20 85 -18
0 -20 -7 -20 -85z"/>
<path d="M506 543 c35 -76 35 -78 20 -111 -16 -33 -16 -33 5 -30 16 2 31 27
65 106 24 57 44 106 44 108 0 2 -8 4 -19 4 -13 0 -24 -15 -39 -52 l-20 -53
-23 53 c-18 40 -28 52 -45 52 -23 0 -22 -1 12 -77z"/>
<path d="M674 605 c-21 -16 -17 -18 36 -19 50 -1 54 -32 6 -41 -19 -4 -42 -15
-51 -25 -36 -40 17 -86 70 -62 15 7 26 8 30 2 16 -26 25 -4 25 59 0 50 -4 74
-16 85 -19 20 -74 21 -100 1z m74 -102 c-4 -22 -58 -31 -58 -10 0 20 10 27 37
27 18 0 24 -5 21 -17z"/>
<path d="M820 606 c0 -10 13 -16 40 -18 l40 -3 -40 -50 c-57 -72 -54 -85 20
-85 47 0 60 3 60 15 0 10 -11 15 -35 15 -19 0 -35 3 -35 7 0 3 18 30 40 59 22
29 40 58 40 64 0 6 -27 10 -65 10 -50 0 -65 -3 -65 -14z"/>
<path d="M983 594 c-22 -22 -25 -32 -20 -67 9 -63 62 -94 122 -71 26 10 48 62
40 100 -12 65 -93 87 -142 38z m98 -28 c8 -16 8 -34 2 -53 -8 -22 -16 -28 -39
-28 -36 0 -54 40 -36 80 16 34 58 35 73 1z"/>
<path d="M1131 613 c0 -4 15 -42 33 -83 43 -102 58 -100 101 8 33 80 33 83 13
80 -15 -2 -27 -18 -43 -61 l-21 -57 -21 57 c-15 43 -25 59 -42 61 -11 2 -21 0
-20 -5z"/>
<path d="M1670 563 c0 -32 6 -69 13 -83 14 -29 59 -39 84 -18 13 10 17 10 20
1 3 -7 11 -13 19 -13 11 0 14 18 14 85 0 78 -2 85 -20 85 -18 0 -20 -7 -20
-64 0 -56 -3 -65 -20 -71 -35 -11 -50 12 -50 76 0 52 -2 59 -20 59 -18 0 -20
-7 -20 -57z"/>
<path d="M585 271 c-3 -5 3 -16 13 -23 10 -7 21 -20 25 -28 4 -12 6 -12 6 2 1
10 -8 22 -19 28 -11 6 -18 15 -15 21 4 5 4 9 1 9 -3 0 -7 -4 -11 -9z"/>
<path d="M680 245 c0 -19 4 -35 8 -35 4 0 6 16 4 35 -2 19 -6 35 -8 35 -2 0
-4 -16 -4 -35z"/>
<path d="M750 277 c0 -4 13 -22 30 -40 l30 -32 -2 40 c-1 30 -2 33 -5 13 l-4
-28 -24 28 c-14 15 -25 23 -25 19z"/>
<path d="M861 261 c-7 -13 -7 -23 2 -35 10 -14 12 -11 12 19 0 40 -1 41 -14
16z"/>
<path d="M960 245 c0 -19 4 -35 10 -35 5 0 7 7 4 15 -4 10 0 15 12 16 11 0 14
3 7 6 -7 2 -13 11 -13 19 0 8 -4 14 -10 14 -5 0 -10 -16 -10 -35z"/>
<path d="M1114 269 c-5 -8 -3 -9 6 -4 7 4 16 2 22 -6 8 -12 9 -12 6 0 -6 20
-24 25 -34 10z"/>
<path d="M1294 269 c-5 -8 -3 -9 6 -4 7 4 16 2 22 -6 8 -12 9 -12 6 0 -6 20
-24 25 -34 10z"/>
<path d="M1233 240 c0 -23 3 -28 9 -16 5 9 5 23 0 32 -6 12 -9 7 -9 -16z"/>
<path d="M1398 247 c-3 -15 -2 -30 3 -32 13 -9 19 12 11 36 -9 23 -9 23 -14
-4z"/>
<path d="M1118 213 c6 -2 18 -2 25 0 6 3 1 5 -13 5 -14 0 -19 -2 -12 -5z"/>
<path d="M1298 213 c6 -2 18 -2 25 0 6 3 1 5 -13 5 -14 0 -19 -2 -12 -5z"/>
</g>
</svg>
